<svg xmlns="http://www.w3.org/2000/svg" viewBox="0 0 512 512">
  <defs>
    <linearGradient id="bg" x1="80" y1="55" x2="440" y2="470" gradientUnits="userSpaceOnUse">
      <stop stop-color="#F6EEE7"/>
      <stop offset="1" stop-color="#DED5CC"/>
    </linearGradient>
    <linearGradient id="tomato" x1="150" y1="145" x2="375" y2="402" gradientUnits="userSpaceOnUse">
      <stop stop-color="#CFA08F"/>
      <stop offset="1" stop-color="#AD7467"/>
    </linearGradient>
    <filter id="shadow" x="80" y="80" width="360" height="370" filterUnits="userSpaceOnUse">
      <feDropShadow dx="0" dy="18" stdDeviation="20" flood-color="#5E4438" flood-opacity=".2"/>
    </filter>
  </defs>
  <rect x="28" y="28" width="456" height="456" rx="116" fill="url(#bg)"/>
  <g filter="url(#shadow)">
    <path fill="url(#tomato)" d="M256 151c104 0 172 66 172 158 0 99-70 157-172 157S84 408 84 309c0-92 68-158 172-158Z"/>
    <path fill="#7F9279" d="M256 164c-47 0-80-28-97-63 39-9 76 1 97 29 21-28 58-38 97-29-17 35-50 63-97 63Z"/>
    <circle cx="256" cy="306" r="83" fill="none" stroke="#FFF8F1" stroke-opacity=".92" stroke-width="18"/>
    <path d="M256 260v50l34 21" fill="none" stroke="#FFF8F1" stroke-width="18" stroke-linecap="round" stroke-linejoin="round"/>
  </g>
</svg>
